REM Ripping Tool: trurip

FILE "Nobunaga no Yabou - Zenkoku-ban (1993)(Koei)(JP).img" BINARY
  TRACK 01 AUDIO
    INDEX 01 00:00:00
  TRACK 02 MODE1/2352
    INDEX 00 00:44:65
    INDEX 01 00:47:65
  TRACK 03 AUDIO
    INDEX 00 01:38:21
    INDEX 01 01:40:21
  TRACK 04 AUDIO
    INDEX 01 02:29:38
  TRACK 05 AUDIO
    INDEX 01 06:15:11
  TRACK 06 AUDIO
    INDEX 01 08:52:47
  TRACK 07 AUDIO
    INDEX 01 11:51:23
  TRACK 08 AUDIO
    INDEX 01 15:49:55
  TRACK 09 MODE1/2352
    INDEX 00 22:00:62
    INDEX 01 22:03:62

REM DISC HASHES
REM CRC32 : d6ebcd55
REM MD5   : f3684cf045928437c605e387114f6943
REM SHA1  : 3aabe460574aedc4026abd28e0d83fdf9904a43e

REM Gap Append Method: Prev [crc32]
REM Trk 01: ccd25d2f
REM Trk 02: 5a6ebbe8
REM Trk 03: 413c39a8
REM Trk 04: a5bfdbbd
REM Trk 05: 5d5ab903
REM Trk 06: 6ac7c81a
REM Trk 07: 631f7c47
REM Trk 08: c6637ec2
REM Trk 09: 10013d34

REM Gap Append Method: Prev [md5]
REM Trk 01: 7938d9aa88f644b60389fa8246f2052e
REM Trk 02: cfec0f4feb3fbc73d01797986a3559c5
REM Trk 03: c806449c20b13e7f20dcdad4755e35bf
REM Trk 04: 638d7a69a162b6150e4d424d578a13bd
REM Trk 05: e4b3eb8813cbf9ae1dff2c074d633a05
REM Trk 06: 6ebda220c44a9f98b3c2e94bd24bb170
REM Trk 07: 92edd5495cef0f9de340d8cbb2ec98fc
REM Trk 08: c5ccda753ae58e397c71b3b42bbd2120
REM Trk 09: 7eb1aa07653b3a6dcf3e37bdcc3011c9

REM Gap Append Method: Prev [sha1]
REM Trk 01: 0fc7f8840f23f43ebfb7041f71427c165f368105
REM Trk 02: 47a2bb56d6b39481d77d5c3c7ff07af87171e754
REM Trk 03: e317fa4da3e38ed7f6646379cc562bf2d8f236b0
REM Trk 04: 5f8de80aa78af5257059c1d55f853ca213d8dab1
REM Trk 05: 6f8e52db61c6d7909fe94e15f6ffc0b0db882933
REM Trk 06: 29ac3e7a65fdb0e2086b502cfa5c6e653cf7d4c5
REM Trk 07: e132333e2bf5d18dd9e6e3f327e12223c346b63c
REM Trk 08: a000077c0aa1e793d90e735e573fecf9a90427f9
REM Trk 09: 06aaac81aed427a672f82aae310b0c3bdeb80ee4

REM Gap Append Method: None [crc32]
REM Trk 01: b979500c
REM Trk 02: ee41763c
REM Trk 03: 413c39a8
REM Trk 04: a5bfdbbd
REM Trk 05: 5d5ab903
REM Trk 06: 6ac7c81a
REM Trk 07: 631f7c47
REM Trk 08: 81d328ea
REM Trk 09: 10013d34
REM Gap 02: 16e86594
REM Gap 03: 7abe247f
REM Gap 09: 55cb09af

REM Gap Append Method: None [md5]
REM Trk 01: a25a2c129b7100092cc40e9b6e176a63
REM Trk 02: aacfe2a79f70cf6ced046318c3fc1254
REM Trk 03: c806449c20b13e7f20dcdad4755e35bf
REM Trk 04: 638d7a69a162b6150e4d424d578a13bd
REM Trk 05: e4b3eb8813cbf9ae1dff2c074d633a05
REM Trk 06: 6ebda220c44a9f98b3c2e94bd24bb170
REM Trk 07: 92edd5495cef0f9de340d8cbb2ec98fc
REM Trk 08: d829b07f69214a55cc41afb37c91cee0
REM Trk 09: 7eb1aa07653b3a6dcf3e37bdcc3011c9
REM Gap 02: fbd314ec9876f082e173fbb5baf092aa
REM Gap 03: 9df204fbc98bb8965081cb30a89715fc
REM Gap 09: f8bfdc682c256b0c150122c498d6779a

REM Gap Append Method: None [sha1]
REM Trk 01: 9ac3f1a11d434d186466917f1c7955bf7670c910
REM Trk 02: ee399d719df69b66b951419c3d7946c7bcc5885b
REM Trk 03: e317fa4da3e38ed7f6646379cc562bf2d8f236b0
REM Trk 04: 5f8de80aa78af5257059c1d55f853ca213d8dab1
REM Trk 05: 6f8e52db61c6d7909fe94e15f6ffc0b0db882933
REM Trk 06: 29ac3e7a65fdb0e2086b502cfa5c6e653cf7d4c5
REM Trk 07: e132333e2bf5d18dd9e6e3f327e12223c346b63c
REM Trk 08: fa75bb319013a8a63e95cf8e83413e49e428a619
REM Trk 09: 06aaac81aed427a672f82aae310b0c3bdeb80ee4
REM Gap 02: 08a9af7bae10b281a8edaad6e9ea6cd1646d0ce0
REM Gap 03: cbe29e0bd725ef1194f8c47619dd42078e841de2
REM Gap 09: ddc5e8d05182ced519e382a25785094527c5e422

REM Gap Append Method: Next [crc32]
REM Trk 01: b979500c
REM Trk 02: 835f4786
REM Trk 03: 4a1c63e9
REM Trk 04: a5bfdbbd
REM Trk 05: 5d5ab903
REM Trk 06: 6ac7c81a
REM Trk 07: 631f7c47
REM Trk 08: 81d328ea
REM Trk 09: d1db461c

REM Gap Append Method: Next [md5]
REM Trk 01: a25a2c129b7100092cc40e9b6e176a63
REM Trk 02: 28f31d094a49d05243ba0455daa0ac10
REM Trk 03: 2eef273b81d8ac180b6f4651d4b62f99
REM Trk 04: 638d7a69a162b6150e4d424d578a13bd
REM Trk 05: e4b3eb8813cbf9ae1dff2c074d633a05
REM Trk 06: 6ebda220c44a9f98b3c2e94bd24bb170
REM Trk 07: 92edd5495cef0f9de340d8cbb2ec98fc
REM Trk 08: d829b07f69214a55cc41afb37c91cee0
REM Trk 09: 7ef24bb1e23edb8696f2d3d4ee7a8e32

REM Gap Append Method: Next [sha1]
REM Trk 01: 9ac3f1a11d434d186466917f1c7955bf7670c910
REM Trk 02: 4c75606489e33313b78c03e8825cba2e808eaf05
REM Trk 03: 17b37778235a8da399354c324783ba65fadd2a43
REM Trk 04: 5f8de80aa78af5257059c1d55f853ca213d8dab1
REM Trk 05: 6f8e52db61c6d7909fe94e15f6ffc0b0db882933
REM Trk 06: 29ac3e7a65fdb0e2086b502cfa5c6e653cf7d4c5
REM Trk 07: e132333e2bf5d18dd9e6e3f327e12223c346b63c
REM Trk 08: fa75bb319013a8a63e95cf8e83413e49e428a619
REM Trk 09: ef2102c8fbf81b07f907fd9f1c5204755f577aac

